<svg xmlns="http://www.w3.org/2000/svg" viewBox="0 0 920 180" role="img" aria-labelledby="title">
  <title id="title">Memento</title>
  <path fill="#F5EEDF" d="M228.96 151.07Q227.73 155.52 219.74 158.65L211.21 154.11L202.67 145.73L199.70 140.03L198.60 135.23L197.40 132.75Q193.50 124.81 193.04 118.17Q192.93 116.64 193.54 114.29L194.01 113.74L194.19 108.85L190.73 103.45L191.54 100.31L190.74 96.26L190.74 92.67Q189.76 89.66 189.60 87.36L189.51 86.08Q189.19 81.49 187.59 76.98L187.09 69.83L184.98 65.36L184.22 61.82L181.76 63.27L174.30 74.06L167.70 82.48L165.25 87.78L157.94 97.02L149.67 103.50L148.99 108.42L144.01 110.57L143.18 113.45L137.25 116.68L135.55 121.68L131.06 123.53L126.52 132.06L123.58 134.06Q123.41 135.36 122.90 138.99Q119.21 141.30 114.87 141.60L113.34 141.71L110.44 137.04L106.26 132.20L106.57 129.35L103.77 125.95L104.92 124.08L104.64 123.84L103.08 119.84L100.93 118.45Q95.74 113.94 92.65 110.05L90.77 105.31L88.02 102.68L82.55 94.08L77.05 88.82L75.04 85.88L69.83 81.11L63.95 74.08Q63.30 72.07 61.11 70.17Q60.99 79.42 58.74 83.94L54.68 91.92L56.35 97.45L54.44 103.23L50.44 119.42L48.76 124.67L48.48 128.02L44.98 136.74L41.80 142.61L42.67 147.68Q41.42 151.87 38.95 156.92L40.91 162.94Q34.02 170.86 30.19 171.13Q26.11 171.42 23.80 167.73Q21.87 165.81 21.18 163.29L21.11 162.27Q24.38 143.05 25.91 142.95Q26.17 142.93 26.19 143.18L25.88 138.84Q25.42 132.20 30.29 128.53L30.19 126.99L31.36 121.78L30.98 120.01Q30.89 118.73 32.78 112.70L33.73 111.60L33.50 104.69L35.75 100.17L38.69 87.13L36.86 79.31L39.98 76.27L39.93 75.50L39.75 65.50L40.21 61.11Q40.83 59.01 40.72 57.48L40.65 56.46L35.74 48.59L36.68 43.65L38.68 43L40.29 40.32L39.90 38.29L43 35L45.37 35.86L48.26 33.09L51.87 33.35L58.56 37.24L58.68 39.03L61.09 40.40L62.52 46.21L64.41 47.61L66.28 52.36L65.85 53.41L68.27 55.04Q69.75 54.17 71.02 54.08Q72.61 54.74 75.34 57.11L76.10 60.65L78.58 63.05L80.74 68.28L93.28 78.70L95.77 84.94L99.77 87.23L104.58 97.16L113.46 110.39Q113.73 110.63 115.11 112.07L115.68 112.80L118.23 112.62L119.97 108.14L125.83 103.88Q131.26 97.09 131.22 96.58Q131.21 96.32 130.69 96.36L130.44 96.37Q131.64 95.26 133.63 94.35Q134.09 93.55 137.05 91.81Q138.57 87.85 142.77 85.50L143.68 83.90L143.52 81.60Q149.11 73.51 152.86 71.97Q152.57 67.88 160.25 64.01L164.40 57.30L165.63 52.85L168.44 52.66Q171.15 47.33 172.25 44.69L175.72 42.91L177.52 43.04L176.65 37.97L174 33.02L177.20 27.41L178.80 20.88Q181.09 20.72 183.12 20.32Q185.14 19.92 184.89 19.94Q186.42 19.83 192.22 21.99L192.87 24L195.84 26.10L196.24 28.13L198.94 29.99L197.75 31.36Q201.69 32.62 201.88 35.43Q201.95 36.45 201.55 38.02L201.84 42.11Q202.40 42.84 205.22 46.49L203.78 47.88L203.61 49.17L204.14 49.39L205.19 53.42L208.97 55.98L206.41 59.75L205.52 65.46L207.60 69.42L207.50 75.33L210.33 82.83Q212.22 87.83 212.43 90.90Q212.56 92.68 210.47 95.91Q212.33 96.81 212.48 98.85Q212.60 100.64 211.27 103.55L212.36 104.50L212.59 118.86L215.95 126.58L216.54 135.01Q218.24 137.20 219.45 139.93Q220.02 140.66 225.50 145.67Q228.53 148.54 228.96 151.07Z"/>
  <path fill="#F5EEDF" d="M305.09 135.46Q304.99 138.53 300.22 142.97Q298.80 147.02 296.15 149.49L294.61 149.69L291.62 154.46L286.99 155.06L282.02 157.96L279.30 162.48L276.51 161.87Q273.65 163.05 271.85 163.24L270.23 165.49Q269.47 165.21 267.94 165.16Q264.61 165.04 261.38 169.54L257.91 166.34Q256.88 166.56 254.83 166.49Q251.50 166.38 249.24 165.27L244.89 165.12L242.88 163.77Q233.22 161.89 230.86 155.92L230.89 155.15L227.87 153.51L226.49 149.11L223.49 146.95L223.63 143.12L220.95 131.75L221.78 122.56L222.95 118.50L223.14 113.13L224.56 109.08L224.36 107.28L226.26 104.27L225.73 104.77Q225.81 102.46 227.18 99.95L227.23 98.67L226.67 92.50Q226.83 88.15 230.78 84.96Q231.05 84.46 231.09 83.44Q231.12 82.41 230.34 79.18Q229.56 75.95 229.60 74.68Q229.71 71.61 231.36 68.33Q233.30 71.47 237.14 71.61L237.90 71.64Q238.45 70.63 240.29 69.41Q242.56 63.09 246.29 58.86L247.35 57.88Q247.39 56.85 249.09 52.05L251.14 52.12L251.69 50.86L253.76 50.42Q255.11 48.41 255.51 48.04Q255.90 47.67 261.12 45.04Q262.21 43.28 264.31 41.82Q265.35 41.34 266.90 40.88L267.98 39.39Q274.96 37.32 276.76 37.39Q278.80 37.46 280.56 38.54L281.85 38.33L283.60 39.42Q286.59 41.83 289.61 43.47L293.84 46.95L293.80 47.97Q299.53 52.78 299.23 61.23L298.38 63.76L298.85 72.23L296.49 73.68L293.70 80.24L288.65 85.45L288.25 89.53Q279.86 95.13 272.83 98.47Q270.40 101.97 265.54 101.80L264.77 101.78L259.80 104.68L255.71 104.53L249.48 106.88L244.96 104.41L244.45 104.40Q243.86 106.42 243.21 110.50L241.11 111.96L240.74 115.02L239.06 119.32Q239.61 125.49 239.55 127.28L238.50 128.01Q238.38 131.34 238.07 132.86Q238.06 133.12 237.79 133.62Q237.77 134.13 237.76 134.39Q237.69 136.44 239.69 137.79Q240.35 140.88 242.12 141.71L243.85 143.31L249.43 145.04L249.40 145.81L251.43 146.39L260.11 147.21L265.26 146.62L267.88 144.92L269.43 144.46L272.12 140.71L273.41 140.50L279.88 138.68Q280.96 136.92 283.31 135.72L284.12 134.47Q289.28 133.63 290.20 129.30Q293.90 125.85 299.53 126.04L300.55 126.08Q305.22 131.88 305.09 135.46ZM282.34 60.89Q282.37 60.12 281.68 57.79L280.41 57.49L279.89 57.73Q279.63 57.72 278.86 57.70Q278.34 57.93 277.83 57.92Q277.58 57.91 277.07 57.63Q276.56 57.62 276.31 57.61L273.68 59.31L271.37 59.48L270.08 59.95L265.53 65.43L262.64 67.38L258.30 74.40L255.94 75.85Q255.03 80.17 252.10 83.15L251.02 84.90Q253.89 83.21 257.48 83.33L259.29 82.63L260.14 80.35L263.71 80.73L265.87 77.73L267.40 77.79L270.18 78.91L271.60 75.12L273.39 75.18L273.48 72.37L276.84 71.71L277.63 70.97L278.22 68.69L281.72 63.94Q282.28 62.68 282.34 60.89Z"/>
  <path fill="#F5EEDF" d="M519.02 124.19Q517.93 127.84 515.98 129.73Q515.36 132.59 513.89 133.95Q512.74 136.57 511.01 137.69L510.07 139.27Q509.12 140.86 507.33 140.95L506.19 143.58L504.40 143.67L503.24 146.04L501.24 146.91L499.80 148.78L498.57 149.87Q494.74 150.07 492.30 152.51Q489.05 153.96 485.47 154.15Q481.89 154.34 478.22 152.73Q474.11 152.69 474.06 151.67L470.45 151.35L469.65 150.62L467.95 147.63L465.02 145.48Q462.03 142.30 461.63 139.50Q459.70 137.04 457.54 129.98L454.77 126.02L454.65 123.72L452.46 116.14L452.55 113.06L450.60 105.22L451.03 98.79L449.66 97.06L447.44 103.59Q442.87 109.21 442.03 110.41Q441.20 111.61 439.92 111.67Q439.66 111.69 438.88 111.47L437.50 114.37Q437.25 114.63 437.29 115.40Q437.37 116.94 439.18 117.10Q438.69 117.64 436.81 120.81Q435.89 122.91 435.17 123.72L434.33 122.48L434.01 126.08Q430.82 128.81 429.81 133.99Q427.43 137.45 422.38 143.87L419.24 147.62Q417.96 147.69 417.99 148.20L418.02 148.71Q416.67 152.37 412.94 154.62L410.08 158.61L408.29 158.71L402.27 161.33Q394.58 161.22 392.47 155.18L392.06 152.38L390.35 149.14L390.21 146.32L387.77 139.02L387.65 136.72L385.99 134.24L386.59 126.26Q386.27 125 386.15 122.70Q386.04 120.65 386.26 119.87L385.92 118.35L385.87 117.33L384.44 114.58L386.23 109.62Q385.61 107.60 384.35 103.05L385 100.71L385.38 93.26L383.05 87.99L383.33 83.62L382.44 81.36Q382.15 80.61 380.40 76.60L378.66 77.71L375.56 81.98L372.64 84.95L366.90 92.94L366.54 95.78L362.43 100.61L360.83 104.28L359.15 106.42Q358.68 112.09 353.94 114.64L353.87 118.24Q352.42 119.85 350.89 122.49Q349.36 125.14 348.74 125.55Q348.12 125.97 346.66 127.33L343.82 131.84Q344.05 136.18 340.82 138.15L340.90 139.68Q339.47 141.81 337.02 143.98L336.74 143.49L336.16 147.11Q334.11 147.21 332.58 152.16L331.86 153.23Q331.82 157.33 327.84 159.59L324.44 163.10Q320.45 165.36 319.17 165.43Q312.53 165.78 309.91 154.89L308.59 149.32Q308.31 148.82 308.25 147.80Q308.16 146.01 308.83 144.18L307.30 139.39L307.60 135.27L306.87 131.21Q307.10 125.81 308.31 124.47Q307.26 119.14 307.22 118.37L306.98 113.77Q307.91 111.93 309.30 109.04L307.68 107.58Q307.06 105.56 307.05 105.31Q306.96 103.52 309.80 99.01L307.75 94.25L308.61 91.13L306.69 83.79L307.02 80.19L305.44 74.63L305.50 70.78L302.96 66.30Q307.55 56.06 313.43 55.75Q316.49 55.59 319.44 58L320.09 60.53Q324.55 62.61 324.79 67.21Q324.75 66.44 324.31 72.62L323.27 72.41L325.80 76.64L324.37 78.76L324.17 79.80L326.32 91.48L326.33 101.48L325.66 103.31L326.90 107.34Q327.72 108.33 327.80 109.86Q327.90 111.91 325.97 114.06Q326.15 117.64 325 120L326.17 127.63L326.33 130.70L326.56 130.18L327.97 127.80L331.21 121.22L331.98 121.18Q333.51 121.10 335.05 116.15L336.58 111.19Q337.01 109.63 340.16 106.14L340.94 101.48L343.77 96.72L344.61 93.09Q345.84 92.25 347.07 91.16L347.28 90.38Q348 89.32 352.63 84.72L354.12 83.87L354.50 81.29L355.74 80.45Q356.73 75.02 361.75 72.96L360.69 72.25L361.69 71.68Q361.42 71.44 361.39 70.93Q361.36 70.42 361.82 69.37L365.82 67.36L366.37 63.23L369.18 63.09Q369.17 62.83 369.60 61.27L374.50 56.91Q378.02 55.70 379.30 55.63Q382.37 55.47 387.83 56.98L390.58 60.43L391.63 60.88L393.06 63.89L396.90 68.56L397.07 71.88L399.51 74.31L399.71 78.15Q402.84 84.14 403.07 88.48L402.46 91.59L404.23 95.86L401.56 98.82L402.88 104.39L402.70 105.93L402.51 107.23Q402.14 109.81 402.20 111.09Q402.27 112.37 403.75 116.13L403.13 118.99L404.08 122.52L403.36 123.33Q404.06 126.88 405.52 135.27L405.32 136.30L413.03 126.93L415.33 121.94Q416.28 120.35 418.40 116.90L418.38 116.39Q419.18 112.25 421.40 110.59Q421.32 109.06 423.76 106.63L425.74 105.24Q426.53 100.84 430.73 97.80L431.82 94.15L433.96 90.97L436.38 88.28Q438.59 86.37 439.67 82.46L441.55 79.29L442.38 75.40L445.11 73.72L447.73 69.99L450.22 63.71Q449.20 63.76 449.17 63.25Q449.17 63.25 449.63 62.20L451.34 60.57L453.17 56.38Q457.44 54.62 457.95 54.59Q457.95 54.59 459 55.05L463.61 55.06L467.80 56.64L471.59 60.54L472.54 64.08L472.44 66.90L471.21 67.99L468.68 73.51L467.97 79.44Q469.31 80.65 469.49 83.98Q468.53 85.31 468.64 87.35L467.72 89.45Q468.30 90.70 468.45 93.52Q468.57 95.82 468.37 96.85L467.41 98.19L468.53 99.92L466.86 102.32Q468.39 102.24 468.57 105.56Q469.16 107.07 469.18 107.58Q469.22 108.34 468.77 109.39Q469.41 111.92 469.53 114.22L469.56 114.74Q469.59 115.25 473.43 125.04L474.08 127.57L477.05 130.49L478.77 133.99L480.35 134.68L481.45 136.16L482.74 136.35L485.07 136.74L486.33 136.42L487.10 136.38Q489.66 136.24 493.13 134.01Q494.02 131.40 498.22 128.36Q498.40 127.07 501.03 123.34L505.21 120.04L506.59 116.90Q508.56 115.51 510.87 115.39Q513.68 115.24 517.08 116.60Q518.75 119.08 519.02 124.19Z"/>
  <path fill="#F5EEDF" d="M591.30 134.46Q591.20 137.53 586.43 141.97Q585.01 146.02 582.36 148.49L580.82 148.69L577.83 153.46L573.20 154.06L568.23 156.96L565.51 161.48L562.72 160.87Q559.86 162.05 558.06 162.24L556.44 164.49Q555.68 164.21 554.15 164.16Q550.82 164.04 547.59 168.54L544.12 165.34Q543.08 165.56 541.04 165.49Q537.71 165.38 535.44 164.27L531.09 164.12L529.09 162.77Q519.42 160.89 517.07 154.92L517.10 154.15L514.08 152.51L512.70 148.11L509.70 145.95L509.83 142.12L507.16 130.75L507.99 121.56L509.16 117.50L509.34 112.13L510.77 108.08L510.57 106.28L512.47 103.27L511.94 103.77Q512.02 101.46 513.39 98.95L513.43 97.67L512.88 91.50Q513.03 87.15 516.99 83.96Q517.26 83.46 517.30 82.44Q517.33 81.41 516.55 78.18Q515.76 74.95 515.81 73.68Q515.92 70.61 517.57 67.33Q519.51 70.47 523.35 70.61L524.11 70.64Q524.66 69.63 526.50 68.41Q528.77 62.09 532.50 57.86L533.56 56.88Q533.59 55.85 535.30 51.05L537.35 51.12L537.90 49.86L539.97 49.42Q541.32 47.41 541.71 47.04Q542.11 46.67 547.33 44.04Q548.41 42.28 550.51 40.82Q551.55 40.34 553.11 39.88L554.18 38.39Q561.17 36.32 562.96 36.39Q565.01 36.46 566.77 37.54L568.05 37.33L569.81 38.42Q572.80 40.83 575.82 42.47L580.05 45.95L580.01 46.97Q585.74 51.78 585.44 60.23L584.58 62.76L585.06 71.23L582.70 72.68L579.91 79.24L574.86 84.45L574.46 88.53Q566.07 94.13 559.04 97.47Q556.61 100.97 551.75 100.80L550.98 100.78L546.01 103.68L541.92 103.53L535.69 105.88L531.17 103.41L530.65 103.40Q530.07 105.42 529.42 109.50L527.32 110.96L526.95 114.02L525.27 118.32Q525.82 124.49 525.76 126.28L524.71 127.01Q524.59 130.34 524.28 131.86Q524.27 132.12 524 132.62Q523.98 133.13 523.97 133.39Q523.90 135.44 525.90 136.79Q526.56 139.88 528.33 140.71L530.06 142.31L535.64 144.04L535.61 144.81L537.64 145.39L546.32 146.21L551.46 145.62L554.09 143.92L555.64 143.46L558.33 139.71L559.62 139.50L566.09 137.68Q567.17 135.92 569.52 134.72L570.33 133.47Q575.48 132.63 576.40 128.30Q580.11 124.85 585.74 125.04L586.76 125.08Q591.43 130.88 591.30 134.46ZM568.55 59.89Q568.57 59.12 567.89 56.79L566.62 56.49L566.10 56.73Q565.84 56.72 565.07 56.70Q564.55 56.93 564.04 56.92Q563.78 56.91 563.28 56.63Q562.77 56.62 562.51 56.61L559.89 58.31L557.58 58.48L556.28 58.95L551.74 64.43L548.85 66.38L544.51 73.40L542.15 74.85Q541.23 79.17 538.31 82.15L537.23 83.90Q540.10 82.21 543.68 82.33L545.50 81.63L546.35 79.35L549.92 79.73L552.08 76.73L553.61 76.79L556.39 77.91L557.80 74.12L559.59 74.18L559.69 71.37L563.05 70.71L563.84 69.97L564.43 67.69L567.93 62.94Q568.48 61.68 568.55 59.89Z"/>
  <path fill="#F5EEDF" d="M751.36 113.74Q751.43 115.78 748.22 119.22L745.56 123.67L744.71 128.82L742.44 129.67L741.98 131.23Q737.93 132.65 736.32 137.83Q733.63 141.51 730.36 143.16Q729.12 144.48 728.12 145.03L726.92 147.38L724.63 147.97L718.10 151.78L709.44 153.11L707.12 152.68L703.31 153.58L701.71 151.84Q698.07 150.18 696.47 148.44Q693.37 147.78 691.70 143.74Q687.17 138.77 687.06 135.70L687.03 134.94L685.14 131.93L684.61 131.44L682.91 126.88L680.44 122.10L680.74 116.20L678.07 112.96L673.46 91.10Q672.54 86.77 672.44 83.70L671.88 82.44L670.54 80.70L668.34 83.85L659.47 93.89L656.33 99.38L654.67 103.02L652 107.22L650.02 109.33L650.32 110.60L647.02 118.66L645.06 121.29L642.52 121.89L640.30 124.27Q640.48 129.39 635.67 131.10L635.17 131.63Q633.07 137.33 630.30 138.71L628.12 142.37Q622.67 147.69 620.93 149.03Q620.25 151.61 618.26 153.48Q617.78 154.26 616.54 155.59Q615.93 159.96 609.59 161.98L606.81 162.84Q601.68 162.77 598.16 157.25L594.10 150.99L595.16 144.81L594.53 141.50L595.03 140.97L595.17 137.63L592.14 131.59L594.08 128.45L592.94 125.16L594.61 121.51L594.91 115.61L593.85 114.62L595.77 110.97L594.94 109.21L594.55 105.12L595.30 97.41Q594.70 94.87 594.67 94.10Q594.65 93.59 594.89 93.07Q594.87 92.30 594.86 92.05L593.51 90.05L593.99 81.83L593.63 79.03L594.26 74.91L592.99 68.03L597.33 60.20Q605.31 61.20 608.45 63.27Q611.60 65.34 611.80 70.96L611.88 73.27L613.77 76.27L613.19 81.67L614.57 91.87L612.95 96.80L613.91 102.14L614.06 106.49L612.11 109.38L613.81 113.93L612.37 116.80L612.21 119.62L613.85 122.38L611.99 127.82L611.30 130.15L611.38 132.46L612.75 134.97L616.95 130.47Q616.81 126.63 619.33 125.26Q619.49 122.69 621.24 121.35L620.45 120.61L623.66 117.43L624.40 116.38L624.32 114.07L628.30 110.86L629.24 108.27L631.48 106.65L641.07 95.05Q639.84 96.62 632.96 104.81L632.98 105.32L633.42 103.51L636.62 99.56L638.77 95.13L638.68 92.57L642.47 91.15L642.87 87.81L643.85 86.75L644.07 85.46L644 83.67L647.46 79.96Q647.44 79.45 647.41 78.69Q647.13 77.93 647.12 77.67Q646.96 73.07 652.06 72.38Q654.20 67.69 658.78 66.76L660.24 64.41L660.73 63.88Q662.92 60.47 667.48 59.03L669.68 56.13L675.82 55.92L679.02 59.40L681.88 60.83L682.17 61.59L683.98 62.04L684.68 67.39L689.11 69.80L687.52 75.49L690.55 81.53L690.80 88.70L693.18 98.35L694.02 107.54L696.51 112.83L698.28 119.43Q699.86 120.91 700.73 123.70L705.38 124.82L705.56 129.94L708.22 132.66L708.24 133.43L709.27 133.65L710.35 135.15L711.33 133.83Q710.82 133.85 712.62 134.04Q715.43 133.95 718.32 128.72L721.37 127.85L722.09 126.54Q722.79 124.47 725.05 123.36L726.85 123.56L727.84 122.50L728.05 121.21L728.78 120.16Q731.28 118.28 731.92 114.67L734.63 111.50L735.06 109.18L736.71 105.03L741.51 103.06L748.50 105.13L751.06 112.47Q751.07 112.72 751.33 112.97Q751.35 113.48 751.36 113.74Z"/>
  <path fill="#8B5CF6" d="M819.30 66.55Q819.14 68.85 814.40 70.57Q813.29 71.78 810.41 72.60Q806.73 73.88 805.12 74.80L799.88 72.63Q795.58 75.41 789.20 74.97L786.19 73.99L783.75 75.87L776.85 75.39L772.31 77.89Q769.58 76.67 767.02 76.50Q766.22 76.95 763.38 77.27Q762.10 77.18 760.62 76.30L759.18 85.95L758.93 93.12L757.54 102.01L757.37 111.75L757.82 116.40L757.57 119.97L760.61 127.88Q759.79 128.60 759.71 129.62Q759.59 131.41 765.14 132.82L765.43 135.92L767.17 136.81L770.09 139.07L772.02 140.74Q774.61 140.41 775.64 140.48Q777.93 140.64 780.18 141.57Q781.24 141.13 784.77 138.30Q787.21 136.42 789.25 136.56Q789.51 136.58 790.02 136.61Q790.51 136.91 790.77 136.92Q793.41 132.23 799.39 131.11Q804.75 131.48 808.09 135.05L807.97 136.84Q807.36 145.53 801.07 147.40Q798.40 152.60 790.89 153.61L787.62 156.21L784.30 155.97L778.32 157.10Q776.24 157.46 772.41 157.20Q770.37 157.05 768.14 155.87L764.82 155.64L756.23 150.16L753.98 149.23L749.12 141.71L746.29 138.17L741.56 125.01L740.36 112.87L741.08 109.84L739.23 106.89L740.76 103.40L739.88 97.69L741.79 96.03L742.53 92.75L741.98 89.63L742.81 85.07L742.08 80.91L743.44 79.72L743.73 75.64L742 74.75L737.07 75.43L732.71 71.79L731.94 71.73Q724.28 71.20 724.85 63.02L724.90 62.26L722.18 57.19L727.35 52.93L733.67 54.40L737.02 54.12L741.78 55.74L747.15 56.12L747.50 51.01L744.68 43.62L748.13 42.07L747.12 38.15L747.93 30.25L746.12 26.79Q744.53 23.85 744.69 21.56Q744.88 18.75 746.29 17.05L747.30 13.53L749.49 11.63Q756.47 10.83 758.77 10.99Q766.94 11.56 767.19 19.02L766.34 20.25Q767.71 22.65 767.57 24.69Q767.55 24.95 767.22 25.95L766.60 27.45L766.22 29.22L767.01 32.61L766.67 33.87L766.93 37.48L764.41 40.39L765.33 45.58L763.88 51.64L765.77 54.08L763.40 58.53L771.39 58.07L785.35 60.33L796.71 59.32L800.52 59.85L801.82 59.68L811.78 60.38Q819.69 60.93 819.30 66.55Z"/>
  <path fill="#F5EEDF" d="M897.94 96.65L896.65 101.33Q897 107.97 896.43 111.85L895.03 114.49L895.18 117.30L893.99 119.16L893.42 122.77L890.75 125.73L889.30 132.22L887.29 133.09L886.42 135.96L883.44 137.91L881.62 142.36L878.64 144.06L878.54 147.14L873.78 149.18Q870.70 153.96 865.91 155.49L864.90 155.80Q861.60 161.36 855.72 161.66Q853.24 163.33 849.92 163.51L847.46 165.43L844.94 166.33L841.75 169.06L838.41 168.98L834.89 170.19L830.45 168.63L819.42 168.44L815.27 162.76L809.34 157.17L810.40 153.02L806.11 144.53L807.73 141.11L806.13 135.04L807.21 131.14Q806.51 127.59 806.43 126.05Q806.17 121.19 808.61 118.76Q808.73 116.19 811.49 110.15L812.77 110.08L812.16 108.32L812.74 104.70L812.54 100.86Q814.47 98.46 814.68 97.68L813.73 94.14L813.67 93.12Q815.28 89.44 815.07 85.61L820.05 77.91Q820.05 77.91 820.67 77.37Q821.28 76.82 821.76 76.28L821.45 75.28L822.48 75.22L826.08 70.67L826.03 64.78L832.30 62.15Q835.76 59.66 836.50 54.24L839.83 54.06Q842.56 52.38 844.86 52.26Q847.16 52.14 849.26 53.05L852.08 53.16L858.60 50.26L862.35 53.39L865.26 55.04L867.30 54.93L871.24 56.77L873.29 56.67Q876.77 59.56 881.40 64.70L881.98 65.95L883.82 66.88L889.55 73.50L895.04 85.26L895.17 87.82ZM881.39 103.67L881.07 102.40Q879.18 100.70 878.82 98.67L879.52 97.35L876.97 92.62L877.22 87.73L876.13 86.51Q872.68 84.13 872.34 82.61Q869.99 81.70 869.77 77.61L868.22 77.44L864.89 72.49L862.49 70.82L857.02 69.05L854.95 68.65Q853.41 68.73 852.85 67.73L848.03 73.63L845.08 80.96L839.86 84.05L839.24 86.90L836.75 88.32L836.08 95.02L833.09 96.71Q832.25 100.34 832.41 103.41L828.52 107.46L829.84 108.16Q830 111.23 827.82 113.65Q827.18 115.99 826.05 118.87L826.15 120.92L825.44 121.98L825.86 125.03L823.41 132.08L823.98 133.33L824.36 140.49L823.52 144.13L823.97 147.69L826.44 150.89L830.09 151.98L831.39 152.43L833.39 151.30L840.06 151.46L840.95 148.85L841.97 148.80Q843.50 148.72 843.80 149.47L846.06 148.58L848.15 149.24L851.35 146.77L851.82 145.98L854.09 145.34Q855.74 142.44 862.24 139.28L862.68 137.97L867.61 134.12L870.20 129.89L874.19 127.63L874.38 126.34L875.51 123.46L875.33 120.13L878.27 117.42L879.19 115.57L880.39 113.97Q879.21 110.96 879.14 109.68Q879.02 107.38 880.42 104.74Z"/>
</svg>
